<svg xmlns="http://www.w3.org/2000/svg" width="64" height="64" viewBox="0 0 64 64" shape-rendering="crispEdges">
<rect x="21" y="3" width="1" height="1" fill="#181425"/>
<rect x="29" y="3" width="11" height="1" fill="#181425"/>
<rect x="20" y="4" width="1" height="1" fill="#181425"/>
<rect x="21" y="4" width="1" height="1" fill="#a22633"/>
<rect x="22" y="4" width="1" height="1" fill="#181425"/>
<rect x="25" y="4" width="5" height="1" fill="#181425"/>
<rect x="30" y="4" width="10" height="1" fill="#e43b44"/>
<rect x="40" y="4" width="3" height="1" fill="#181425"/>
<rect x="21" y="5" width="1" height="1" fill="#3e2731"/>
<rect x="22" y="5" width="1" height="1" fill="#a22633"/>
<rect x="23" y="5" width="3" height="1" fill="#181425"/>
<rect x="26" y="5" width="16" height="1" fill="#e43b44"/>
<rect x="42" y="5" width="2" height="1" fill="#181425"/>
<rect x="21" y="6" width="1" height="1" fill="#181425"/>
<rect x="22" y="6" width="1" height="1" fill="#a22633"/>
<rect x="23" y="6" width="15" height="1" fill="#e43b44"/>
<rect x="38" y="6" width="5" height="1" fill="#a22633"/>
<rect x="43" y="6" width="1" height="1" fill="#181425"/>
<rect x="19" y="7" width="2" height="1" fill="#181425"/>
<rect x="21" y="7" width="1" height="1" fill="#a22633"/>
<rect x="22" y="7" width="14" height="1" fill="#e43b44"/>
<rect x="36" y="7" width="7" height="1" fill="#a22633"/>
<rect x="43" y="7" width="1" height="1" fill="#3e2731"/>
<rect x="18" y="8" width="1" height="1" fill="#181425"/>
<rect x="19" y="8" width="1" height="1" fill="#a22633"/>
<rect x="20" y="8" width="13" height="1" fill="#e43b44"/>
<rect x="33" y="8" width="10" height="1" fill="#a22633"/>
<rect x="43" y="8" width="1" height="1" fill="#3e2731"/>
<rect x="17" y="9" width="1" height="1" fill="#181425"/>
<rect x="18" y="9" width="13" height="1" fill="#e43b44"/>
<rect x="31" y="9" width="11" height="1" fill="#a22633"/>
<rect x="42" y="9" width="2" height="1" fill="#3e2731"/>
<rect x="16" y="10" width="1" height="1" fill="#181425"/>
<rect x="17" y="10" width="12" height="1" fill="#e43b44"/>
<rect x="29" y="10" width="6" height="1" fill="#a22633"/>
<rect x="35" y="10" width="3" height="1" fill="#3e2731"/>
<rect x="38" y="10" width="3" height="1" fill="#a22633"/>
<rect x="41" y="10" width="2" height="1" fill="#3e2731"/>
<rect x="43" y="10" width="1" height="1" fill="#181425"/>
<rect x="15" y="11" width="1" height="1" fill="#181425"/>
<rect x="16" y="11" width="12" height="1" fill="#e43b44"/>
<rect x="28" y="11" width="5" height="1" fill="#a22633"/>
<rect x="33" y="11" width="1" height="1" fill="#3e2731"/>
<rect x="34" y="11" width="7" height="1" fill="#a22633"/>
<rect x="41" y="11" width="2" height="1" fill="#3e2731"/>
<rect x="43" y="11" width="1" height="1" fill="#181425"/>
<rect x="14" y="12" width="1" height="1" fill="#181425"/>
<rect x="15" y="12" width="11" height="1" fill="#e43b44"/>
<rect x="26" y="12" width="5" height="1" fill="#a22633"/>
<rect x="31" y="12" width="2" height="1" fill="#3e2731"/>
<rect x="33" y="12" width="4" height="1" fill="#a22633"/>
<rect x="37" y="12" width="1" height="1" fill="#3e2731"/>
<rect x="38" y="12" width="4" height="1" fill="#181425"/>
<rect x="42" y="12" width="1" height="1" fill="#262b44"/>
<rect x="43" y="12" width="2" height="1" fill="#181425"/>
<rect x="13" y="13" width="1" height="1" fill="#181425"/>
<rect x="14" y="13" width="10" height="1" fill="#e43b44"/>
<rect x="24" y="13" width="4" height="1" fill="#a22633"/>
<rect x="28" y="13" width="2" height="1" fill="#3e2731"/>
<rect x="30" y="13" width="4" height="1" fill="#a22633"/>
<rect x="34" y="13" width="3" height="1" fill="#181425"/>
<rect x="37" y="13" width="8" height="1" fill="#262b44"/>
<rect x="45" y="13" width="1" height="1" fill="#181425"/>
<rect x="12" y="14" width="1" height="1" fill="#181425"/>
<rect x="13" y="14" width="1" height="1" fill="#a22633"/>
<rect x="14" y="14" width="9" height="1" fill="#e43b44"/>
<rect x="23" y="14" width="4" height="1" fill="#a22633"/>
<rect x="27" y="14" width="2" height="1" fill="#3e2731"/>
<rect x="29" y="14" width="3" height="1" fill="#a22633"/>
<rect x="32" y="14" width="1" height="1" fill="#3e2731"/>
<rect x="33" y="14" width="2" height="1" fill="#181425"/>
<rect x="35" y="14" width="2" height="1" fill="#262b44"/>
<rect x="37" y="14" width="1" height="1" fill="#5a6988"/>
<rect x="38" y="14" width="1" height="1" fill="#181425"/>
<rect x="39" y="14" width="1" height="1" fill="#262b44"/>
<rect x="40" y="14" width="1" height="1" fill="#c0cbdc"/>
<rect x="41" y="14" width="2" height="1" fill="#262b44"/>
<rect x="43" y="14" width="1" height="1" fill="#c0cbdc"/>
<rect x="44" y="14" width="1" height="1" fill="#262b44"/>
<rect x="45" y="14" width="1" height="1" fill="#181425"/>
<rect x="12" y="15" width="1" height="1" fill="#181425"/>
<rect x="13" y="15" width="8" height="1" fill="#e43b44"/>
<rect x="21" y="15" width="5" height="1" fill="#a22633"/>
<rect x="26" y="15" width="2" height="1" fill="#3e2731"/>
<rect x="28" y="15" width="1" height="1" fill="#a22633"/>
<rect x="29" y="15" width="3" height="1" fill="#181425"/>
<rect x="32" y="15" width="3" height="1" fill="#262b44"/>
<rect x="35" y="15" width="1" height="1" fill="#c0cbdc"/>
<rect x="36" y="15" width="2" height="1" fill="#262b44"/>
<rect x="38" y="15" width="2" height="1" fill="#181425"/>
<rect x="40" y="15" width="1" height="1" fill="#c0cbdc"/>
<rect x="41" y="15" width="1" height="1" fill="#262b44"/>
<rect x="42" y="15" width="1" height="1" fill="#c0cbdc"/>
<rect x="43" y="15" width="1" height="1" fill="#262b44"/>
<rect x="44" y="15" width="1" height="1" fill="#c0cbdc"/>
<rect x="45" y="15" width="1" height="1" fill="#262b44"/>
<rect x="46" y="15" width="1" height="1" fill="#181425"/>
<rect x="11" y="16" width="1" height="1" fill="#181425"/>
<rect x="12" y="16" width="1" height="1" fill="#a22633"/>
<rect x="13" y="16" width="7" height="1" fill="#e43b44"/>
<rect x="20" y="16" width="4" height="1" fill="#a22633"/>
<rect x="24" y="16" width="4" height="1" fill="#3e2731"/>
<rect x="28" y="16" width="3" height="1" fill="#181425"/>
<rect x="31" y="16" width="3" height="1" fill="#262b44"/>
<rect x="34" y="16" width="1" height="1" fill="#c0cbdc"/>
<rect x="35" y="16" width="1" height="1" fill="#262b44"/>
<rect x="36" y="16" width="2" height="1" fill="#c0cbdc"/>
<rect x="38" y="16" width="3" height="1" fill="#181425"/>
<rect x="41" y="16" width="1" height="1" fill="#262b44"/>
<rect x="42" y="16" width="1" height="1" fill="#181425"/>
<rect x="43" y="16" width="1" height="1" fill="#c0cbdc"/>
<rect x="44" y="16" width="2" height="1" fill="#262b44"/>
<rect x="46" y="16" width="1" height="1" fill="#181425"/>
<rect x="11" y="17" width="1" height="1" fill="#181425"/>
<rect x="12" y="17" width="6" height="1" fill="#e43b44"/>
<rect x="18" y="17" width="4" height="1" fill="#a22633"/>
<rect x="22" y="17" width="4" height="1" fill="#3e2731"/>
<rect x="26" y="17" width="3" height="1" fill="#181425"/>
<rect x="29" y="17" width="4" height="1" fill="#262b44"/>
<rect x="33" y="17" width="1" height="1" fill="#5a6988"/>
<rect x="34" y="17" width="1" height="1" fill="#262b44"/>
<rect x="35" y="17" width="2" height="1" fill="#181425"/>
<rect x="37" y="17" width="1" height="1" fill="#262b44"/>
<rect x="38" y="17" width="2" height="1" fill="#181425"/>
<rect x="40" y="17" width="2" height="1" fill="#262b44"/>
<rect x="42" y="17" width="2" height="1" fill="#181425"/>
<rect x="44" y="17" width="2" height="1" fill="#262b44"/>
<rect x="46" y="17" width="1" height="1" fill="#181425"/>
<rect x="10" y="18" width="1" height="1" fill="#181425"/>
<rect x="11" y="18" width="1" height="1" fill="#a22633"/>
<rect x="12" y="18" width="5" height="1" fill="#e43b44"/>
<rect x="17" y="18" width="5" height="1" fill="#a22633"/>
<rect x="22" y="18" width="3" height="1" fill="#3e2731"/>
<rect x="25" y="18" width="4" height="1" fill="#181425"/>
<rect x="29" y="18" width="1" height="1" fill="#262b44"/>
<rect x="30" y="18" width="1" height="1" fill="#181425"/>
<rect x="31" y="18" width="1" height="1" fill="#262b44"/>
<rect x="32" y="18" width="1" height="1" fill="#181425"/>
<rect x="33" y="18" width="1" height="1" fill="#262b44"/>
<rect x="34" y="18" width="2" height="1" fill="#181425"/>
<rect x="36" y="18" width="1" height="1" fill="#262b44"/>
<rect x="37" y="18" width="1" height="1" fill="#181425"/>
<rect x="38" y="18" width="1" height="1" fill="#c28569"/>
<rect x="39" y="18" width="1" height="1" fill="#181425"/>
<rect x="40" y="18" width="2" height="1" fill="#262b44"/>
<rect x="42" y="18" width="2" height="1" fill="#181425"/>
<rect x="44" y="18" width="2" height="1" fill="#262b44"/>
<rect x="46" y="18" width="1" height="1" fill="#181425"/>
<rect x="10" y="19" width="1" height="1" fill="#181425"/>
<rect x="11" y="19" width="1" height="1" fill="#a22633"/>
<rect x="12" y="19" width="3" height="1" fill="#e43b44"/>
<rect x="15" y="19" width="5" height="1" fill="#a22633"/>
<rect x="20" y="19" width="2" height="1" fill="#3e2731"/>
<rect x="22" y="19" width="4" height="1" fill="#181425"/>
<rect x="26" y="19" width="1" height="1" fill="#262b44"/>
<rect x="27" y="19" width="3" height="1" fill="#181425"/>
<rect x="30" y="19" width="1" height="1" fill="#262b44"/>
<rect x="31" y="19" width="4" height="1" fill="#181425"/>
<rect x="35" y="19" width="1" height="1" fill="#262b44"/>
<rect x="36" y="19" width="1" height="1" fill="#181425"/>
<rect x="37" y="19" width="1" height="1" fill="#b86f50"/>
<rect x="38" y="19" width="1" height="1" fill="#e8b796"/>
<rect x="39" y="19" width="1" height="1" fill="#181425"/>
<rect x="40" y="19" width="2" height="1" fill="#262b44"/>
<rect x="42" y="19" width="3" height="1" fill="#181425"/>
<rect x="45" y="19" width="1" height="1" fill="#262b44"/>
<rect x="46" y="19" width="1" height="1" fill="#181425"/>
<rect x="10" y="20" width="1" height="1" fill="#181425"/>
<rect x="11" y="20" width="7" height="1" fill="#a22633"/>
<rect x="18" y="20" width="3" height="1" fill="#3e2731"/>
<rect x="21" y="20" width="4" height="1" fill="#181425"/>
<rect x="25" y="20" width="1" height="1" fill="#262b44"/>
<rect x="26" y="20" width="4" height="1" fill="#181425"/>
<rect x="30" y="20" width="1" height="1" fill="#b86f50"/>
<rect x="31" y="20" width="1" height="1" fill="#181425"/>
<rect x="32" y="20" width="1" height="1" fill="#c28569"/>
<rect x="33" y="20" width="3" height="1" fill="#181425"/>
<rect x="36" y="20" width="1" height="1" fill="#c28569"/>
<rect x="37" y="20" width="2" height="1" fill="#e8b796"/>
<rect x="39" y="20" width="3" height="1" fill="#181425"/>
<rect x="42" y="20" width="1" height="1" fill="#e8b796"/>
<rect x="43" y="20" width="4" height="1" fill="#181425"/>
<rect x="10" y="21" width="1" height="1" fill="#181425"/>
<rect x="11" y="21" width="6" height="1" fill="#a22633"/>
<rect x="17" y="21" width="2" height="1" fill="#3e2731"/>
<rect x="19" y="21" width="5" height="1" fill="#181425"/>
<rect x="24" y="21" width="2" height="1" fill="#262b44"/>
<rect x="26" y="21" width="2" height="1" fill="#181425"/>
<rect x="28" y="21" width="2" height="1" fill="#c28569"/>
<rect x="30" y="21" width="1" height="1" fill="#b86f50"/>
<rect x="31" y="21" width="8" height="1" fill="#e8b796"/>
<rect x="39" y="21" width="2" height="1" fill="#181425"/>
<rect x="41" y="21" width="1" height="1" fill="#c28569"/>
<rect x="42" y="21" width="1" height="1" fill="#e8b796"/>
<rect x="43" y="21" width="4" height="1" fill="#181425"/>
<rect x="10" y="22" width="2" height="1" fill="#181425"/>
<rect x="12" y="22" width="4" height="1" fill="#a22633"/>
<rect x="16" y="22" width="1" height="1" fill="#3e2731"/>
<rect x="17" y="22" width="4" height="1" fill="#181425"/>
<rect x="21" y="22" width="2" height="1" fill="#262b44"/>
<rect x="23" y="22" width="1" height="1" fill="#181425"/>
<rect x="24" y="22" width="2" height="1" fill="#262b44"/>
<rect x="26" y="22" width="1" height="1" fill="#181425"/>
<rect x="27" y="22" width="3" height="1" fill="#c28569"/>
<rect x="30" y="22" width="5" height="1" fill="#181425"/>
<rect x="35" y="22" width="7" height="1" fill="#e8b796"/>
<rect x="42" y="22" width="4" height="1" fill="#181425"/>
<rect x="11" y="23" width="1" height="1" fill="#181425"/>
<rect x="12" y="23" width="4" height="1" fill="#3e2731"/>
<rect x="16" y="23" width="5" height="1" fill="#181425"/>
<rect x="21" y="23" width="2" height="1" fill="#262b44"/>
<rect x="23" y="23" width="1" height="1" fill="#181425"/>
<rect x="24" y="23" width="2" height="1" fill="#262b44"/>
<rect x="26" y="23" width="1" height="1" fill="#181425"/>
<rect x="27" y="23" width="2" height="1" fill="#c28569"/>
<rect x="29" y="23" width="1" height="1" fill="#b86f50"/>
<rect x="30" y="23" width="3" height="1" fill="#e8b796"/>
<rect x="33" y="23" width="1" height="1" fill="#733e39"/>
<rect x="34" y="23" width="3" height="1" fill="#181425"/>
<rect x="37" y="23" width="4" height="1" fill="#e8b796"/>
<rect x="41" y="23" width="5" height="1" fill="#181425"/>
<rect x="14" y="24" width="5" height="1" fill="#181425"/>
<rect x="19" y="24" width="1" height="1" fill="#262b44"/>
<rect x="20" y="24" width="1" height="1" fill="#181425"/>
<rect x="21" y="24" width="1" height="1" fill="#262b44"/>
<rect x="22" y="24" width="2" height="1" fill="#181425"/>
<rect x="24" y="24" width="2" height="1" fill="#262b44"/>
<rect x="26" y="24" width="1" height="1" fill="#181425"/>
<rect x="27" y="24" width="1" height="1" fill="#c28569"/>
<rect x="28" y="24" width="4" height="1" fill="#e8b796"/>
<rect x="32" y="24" width="2" height="1" fill="#733e39"/>
<rect x="34" y="24" width="2" height="1" fill="#c28569"/>
<rect x="36" y="24" width="1" height="1" fill="#181425"/>
<rect x="37" y="24" width="3" height="1" fill="#e8b796"/>
<rect x="40" y="24" width="1" height="1" fill="#b86f50"/>
<rect x="41" y="24" width="3" height="1" fill="#733e39"/>
<rect x="44" y="24" width="2" height="1" fill="#181425"/>
<rect x="14" y="25" width="4" height="1" fill="#181425"/>
<rect x="18" y="25" width="1" height="1" fill="#262b44"/>
<rect x="19" y="25" width="1" height="1" fill="#181425"/>
<rect x="20" y="25" width="2" height="1" fill="#262b44"/>
<rect x="22" y="25" width="2" height="1" fill="#181425"/>
<rect x="24" y="25" width="2" height="1" fill="#262b44"/>
<rect x="26" y="25" width="3" height="1" fill="#c28569"/>
<rect x="29" y="25" width="1" height="1" fill="#181425"/>
<rect x="30" y="25" width="1" height="1" fill="#733e39"/>
<rect x="31" y="25" width="4" height="1" fill="#181425"/>
<rect x="35" y="25" width="3" height="1" fill="#c28569"/>
<rect x="38" y="25" width="2" height="1" fill="#e8b796"/>
<rect x="40" y="25" width="1" height="1" fill="#b86f50"/>
<rect x="41" y="25" width="1" height="1" fill="#733e39"/>
<rect x="42" y="25" width="4" height="1" fill="#181425"/>
<rect x="13" y="26" width="5" height="1" fill="#181425"/>
<rect x="18" y="26" width="1" height="1" fill="#262b44"/>
<rect x="19" y="26" width="1" height="1" fill="#181425"/>
<rect x="20" y="26" width="2" height="1" fill="#262b44"/>
<rect x="22" y="26" width="1" height="1" fill="#181425"/>
<rect x="23" y="26" width="3" height="1" fill="#262b44"/>
<rect x="26" y="26" width="4" height="1" fill="#c28569"/>
<rect x="30" y="26" width="1" height="1" fill="#181425"/>
<rect x="31" y="26" width="2" height="1" fill="#ffffff"/>
<rect x="33" y="26" width="3" height="1" fill="#181425"/>
<rect x="36" y="26" width="1" height="1" fill="#c28569"/>
<rect x="37" y="26" width="3" height="1" fill="#e8b796"/>
<rect x="40" y="26" width="1" height="1" fill="#181425"/>
<rect x="41" y="26" width="1" height="1" fill="#ffffff"/>
<rect x="42" y="26" width="5" height="1" fill="#181425"/>
<rect x="13" y="27" width="5" height="1" fill="#181425"/>
<rect x="18" y="27" width="1" height="1" fill="#262b44"/>
<rect x="19" y="27" width="1" height="1" fill="#181425"/>
<rect x="20" y="27" width="5" height="1" fill="#262b44"/>
<rect x="25" y="27" width="1" height="1" fill="#181425"/>
<rect x="26" y="27" width="1" height="1" fill="#c28569"/>
<rect x="27" y="27" width="4" height="1" fill="#e8b796"/>
<rect x="31" y="27" width="1" height="1" fill="#ffffff"/>
<rect x="32" y="27" width="1" height="1" fill="#c28569"/>
<rect x="33" y="27" width="1" height="1" fill="#733e39"/>
<rect x="34" y="27" width="1" height="1" fill="#c28569"/>
<rect x="35" y="27" width="1" height="1" fill="#733e39"/>
<rect x="36" y="27" width="3" height="1" fill="#e8b796"/>
<rect x="39" y="27" width="1" height="1" fill="#ead4aa"/>
<rect x="40" y="27" width="1" height="1" fill="#ffffff"/>
<rect x="41" y="27" width="1" height="1" fill="#c28569"/>
<rect x="42" y="27" width="1" height="1" fill="#733e39"/>
<rect x="43" y="27" width="1" height="1" fill="#c28569"/>
<rect x="44" y="27" width="3" height="1" fill="#181425"/>
<rect x="13" y="28" width="1" height="1" fill="#181425"/>
<rect x="14" y="28" width="10" height="1" fill="#262b44"/>
<rect x="24" y="28" width="1" height="1" fill="#c0cbdc"/>
<rect x="25" y="28" width="1" height="1" fill="#181425"/>
<rect x="26" y="28" width="1" height="1" fill="#c28569"/>
<rect x="27" y="28" width="12" height="1" fill="#e8b796"/>
<rect x="39" y="28" width="1" height="1" fill="#ead4aa"/>
<rect x="40" y="28" width="1" height="1" fill="#c28569"/>
<rect x="41" y="28" width="3" height="1" fill="#e8b796"/>
<rect x="44" y="28" width="1" height="1" fill="#181425"/>
<rect x="45" y="28" width="1" height="1" fill="#262b44"/>
<rect x="46" y="28" width="1" height="1" fill="#181425"/>
<rect x="12" y="29" width="2" height="1" fill="#181425"/>
<rect x="14" y="29" width="9" height="1" fill="#262b44"/>
<rect x="23" y="29" width="2" height="1" fill="#c0cbdc"/>
<rect x="25" y="29" width="1" height="1" fill="#181425"/>
<rect x="26" y="29" width="1" height="1" fill="#b86f50"/>
<rect x="27" y="29" width="13" height="1" fill="#e8b796"/>
<rect x="40" y="29" width="1" height="1" fill="#c28569"/>
<rect x="41" y="29" width="3" height="1" fill="#e8b796"/>
<rect x="44" y="29" width="2" height="1" fill="#181425"/>
<rect x="46" y="29" width="1" height="1" fill="#262b44"/>
<rect x="12" y="30" width="1" height="1" fill="#181425"/>
<rect x="13" y="30" width="1" height="1" fill="#262b44"/>
<rect x="14" y="30" width="1" height="1" fill="#181425"/>
<rect x="15" y="30" width="2" height="1" fill="#262b44"/>
<rect x="17" y="30" width="1" height="1" fill="#c0cbdc"/>
<rect x="18" y="30" width="4" height="1" fill="#262b44"/>
<rect x="22" y="30" width="1" height="1" fill="#181425"/>
<rect x="23" y="30" width="2" height="1" fill="#c0cbdc"/>
<rect x="25" y="30" width="1" height="1" fill="#181425"/>
<rect x="26" y="30" width="1" height="1" fill="#c28569"/>
<rect x="27" y="30" width="17" height="1" fill="#e8b796"/>
<rect x="44" y="30" width="1" height="1" fill="#181425"/>
<rect x="45" y="30" width="2" height="1" fill="#262b44"/>
<rect x="12" y="31" width="3" height="1" fill="#181425"/>
<rect x="15" y="31" width="2" height="1" fill="#262b44"/>
<rect x="17" y="31" width="1" height="1" fill="#c0cbdc"/>
<rect x="18" y="31" width="1" height="1" fill="#181425"/>
<rect x="19" y="31" width="1" height="1" fill="#c0cbdc"/>
<rect x="20" y="31" width="2" height="1" fill="#262b44"/>
<rect x="22" y="31" width="1" height="1" fill="#181425"/>
<rect x="23" y="31" width="2" height="1" fill="#c0cbdc"/>
<rect x="25" y="31" width="1" height="1" fill="#181425"/>
<rect x="26" y="31" width="1" height="1" fill="#b86f50"/>
<rect x="27" y="31" width="2" height="1" fill="#e8b796"/>
<rect x="29" y="31" width="1" height="1" fill="#0099db"/>
<rect x="30" y="31" width="11" height="1" fill="#e8b796"/>
<rect x="41" y="31" width="1" height="1" fill="#733e39"/>
<rect x="42" y="31" width="2" height="1" fill="#e8b796"/>
<rect x="44" y="31" width="2" height="1" fill="#181425"/>
<rect x="46" y="31" width="1" height="1" fill="#c0cbdc"/>
<rect x="47" y="31" width="1" height="1" fill="#181425"/>
<rect x="12" y="32" width="1" height="1" fill="#181425"/>
<rect x="13" y="32" width="1" height="1" fill="#262b44"/>
<rect x="14" y="32" width="1" height="1" fill="#181425"/>
<rect x="15" y="32" width="3" height="1" fill="#262b44"/>
<rect x="18" y="32" width="1" height="1" fill="#181425"/>
<rect x="19" y="32" width="1" height="1" fill="#c0cbdc"/>
<rect x="20" y="32" width="2" height="1" fill="#262b44"/>
<rect x="22" y="32" width="1" height="1" fill="#181425"/>
<rect x="23" y="32" width="2" height="1" fill="#c0cbdc"/>
<rect x="25" y="32" width="1" height="1" fill="#181425"/>
<rect x="26" y="32" width="1" height="1" fill="#c28569"/>
<rect x="27" y="32" width="2" height="1" fill="#e8b796"/>
<rect x="29" y="32" width="2" height="1" fill="#0099db"/>
<rect x="31" y="32" width="7" height="1" fill="#e8b796"/>
<rect x="38" y="32" width="1" height="1" fill="#b86f50"/>
<rect x="39" y="32" width="2" height="1" fill="#c28569"/>
<rect x="41" y="32" width="1" height="1" fill="#733e39"/>
<rect x="42" y="32" width="1" height="1" fill="#e8b796"/>
<rect x="43" y="32" width="1" height="1" fill="#b86f50"/>
<rect x="44" y="32" width="2" height="1" fill="#181425"/>
<rect x="46" y="32" width="1" height="1" fill="#c0cbdc"/>
<rect x="47" y="32" width="1" height="1" fill="#181425"/>
<rect x="12" y="33" width="1" height="1" fill="#181425"/>
<rect x="13" y="33" width="1" height="1" fill="#262b44"/>
<rect x="14" y="33" width="1" height="1" fill="#181425"/>
<rect x="15" y="33" width="3" height="1" fill="#262b44"/>
<rect x="18" y="33" width="1" height="1" fill="#181425"/>
<rect x="19" y="33" width="5" height="1" fill="#262b44"/>
<rect x="24" y="33" width="1" height="1" fill="#c0cbdc"/>
<rect x="25" y="33" width="1" height="1" fill="#181425"/>
<rect x="26" y="33" width="1" height="1" fill="#c28569"/>
<rect x="27" y="33" width="2" height="1" fill="#e8b796"/>
<rect x="29" y="33" width="3" height="1" fill="#0099db"/>
<rect x="32" y="33" width="6" height="1" fill="#e8b796"/>
<rect x="38" y="33" width="1" height="1" fill="#b86f50"/>
<rect x="39" y="33" width="4" height="1" fill="#c28569"/>
<rect x="43" y="33" width="3" height="1" fill="#181425"/>
<rect x="46" y="33" width="1" height="1" fill="#c0cbdc"/>
<rect x="47" y="33" width="1" height="1" fill="#181425"/>
<rect x="12" y="34" width="3" height="1" fill="#181425"/>
<rect x="15" y="34" width="1" height="1" fill="#262b44"/>
<rect x="16" y="34" width="1" height="1" fill="#181425"/>
<rect x="17" y="34" width="1" height="1" fill="#262b44"/>
<rect x="18" y="34" width="1" height="1" fill="#181425"/>
<rect x="19" y="34" width="7" height="1" fill="#262b44"/>
<rect x="26" y="34" width="1" height="1" fill="#c28569"/>
<rect x="27" y="34" width="3" height="1" fill="#e8b796"/>
<rect x="30" y="34" width="1" height="1" fill="#0099db"/>
<rect x="31" y="34" width="9" height="1" fill="#e8b796"/>
<rect x="40" y="34" width="3" height="1" fill="#c28569"/>
<rect x="43" y="34" width="3" height="1" fill="#181425"/>
<rect x="46" y="34" width="1" height="1" fill="#c0cbdc"/>
<rect x="47" y="34" width="1" height="1" fill="#181425"/>
<rect x="12" y="35" width="3" height="1" fill="#181425"/>
<rect x="15" y="35" width="1" height="1" fill="#262b44"/>
<rect x="16" y="35" width="1" height="1" fill="#181425"/>
<rect x="17" y="35" width="1" height="1" fill="#262b44"/>
<rect x="18" y="35" width="1" height="1" fill="#181425"/>
<rect x="19" y="35" width="7" height="1" fill="#262b44"/>
<rect x="26" y="35" width="2" height="1" fill="#c28569"/>
<rect x="28" y="35" width="9" height="1" fill="#e8b796"/>
<rect x="37" y="35" width="2" height="1" fill="#a22633"/>
<rect x="39" y="35" width="1" height="1" fill="#e8b796"/>
<rect x="40" y="35" width="1" height="1" fill="#a22633"/>
<rect x="41" y="35" width="2" height="1" fill="#c28569"/>
<rect x="43" y="35" width="3" height="1" fill="#181425"/>
<rect x="46" y="35" width="1" height="1" fill="#c0cbdc"/>
<rect x="47" y="35" width="1" height="1" fill="#181425"/>
<rect x="13" y="36" width="2" height="1" fill="#181425"/>
<rect x="15" y="36" width="1" height="1" fill="#262b44"/>
<rect x="16" y="36" width="1" height="1" fill="#181425"/>
<rect x="17" y="36" width="5" height="1" fill="#262b44"/>
<rect x="22" y="36" width="1" height="1" fill="#181425"/>
<rect x="23" y="36" width="2" height="1" fill="#262b44"/>
<rect x="25" y="36" width="1" height="1" fill="#181425"/>
<rect x="26" y="36" width="1" height="1" fill="#b86f50"/>
<rect x="27" y="36" width="1" height="1" fill="#c28569"/>
<rect x="28" y="36" width="8" height="1" fill="#e8b796"/>
<rect x="36" y="36" width="1" height="1" fill="#733e39"/>
<rect x="37" y="36" width="4" height="1" fill="#a22633"/>
<rect x="41" y="36" width="1" height="1" fill="#c28569"/>
<rect x="42" y="36" width="1" height="1" fill="#b86f50"/>
<rect x="43" y="36" width="1" height="1" fill="#181425"/>
<rect x="44" y="36" width="1" height="1" fill="#262b44"/>
<rect x="45" y="36" width="1" height="1" fill="#181425"/>
<rect x="46" y="36" width="1" height="1" fill="#c0cbdc"/>
<rect x="47" y="36" width="1" height="1" fill="#181425"/>
<rect x="13" y="37" width="2" height="1" fill="#181425"/>
<rect x="15" y="37" width="1" height="1" fill="#262b44"/>
<rect x="16" y="37" width="1" height="1" fill="#181425"/>
<rect x="17" y="37" width="2" height="1" fill="#262b44"/>
<rect x="19" y="37" width="1" height="1" fill="#181425"/>
<rect x="20" y="37" width="2" height="1" fill="#262b44"/>
<rect x="22" y="37" width="1" height="1" fill="#181425"/>
<rect x="23" y="37" width="2" height="1" fill="#262b44"/>
<rect x="25" y="37" width="1" height="1" fill="#c0cbdc"/>
<rect x="26" y="37" width="1" height="1" fill="#181425"/>
<rect x="27" y="37" width="1" height="1" fill="#b86f50"/>
<rect x="28" y="37" width="8" height="1" fill="#e8b796"/>
<rect x="36" y="37" width="1" height="1" fill="#e43b44"/>
<rect x="37" y="37" width="1" height="1" fill="#f6757a"/>
<rect x="38" y="37" width="2" height="1" fill="#e43b44"/>
<rect x="40" y="37" width="1" height="1" fill="#a22633"/>
<rect x="41" y="37" width="1" height="1" fill="#c28569"/>
<rect x="42" y="37" width="2" height="1" fill="#181425"/>
<rect x="44" y="37" width="1" height="1" fill="#262b44"/>
<rect x="45" y="37" width="1" height="1" fill="#c0cbdc"/>
<rect x="46" y="37" width="1" height="1" fill="#262b44"/>
<rect x="13" y="38" width="4" height="1" fill="#181425"/>
<rect x="17" y="38" width="2" height="1" fill="#262b44"/>
<rect x="19" y="38" width="1" height="1" fill="#181425"/>
<rect x="20" y="38" width="2" height="1" fill="#262b44"/>
<rect x="22" y="38" width="2" height="1" fill="#181425"/>
<rect x="24" y="38" width="2" height="1" fill="#262b44"/>
<rect x="26" y="38" width="2" height="1" fill="#181425"/>
<rect x="28" y="38" width="1" height="1" fill="#c28569"/>
<rect x="29" y="38" width="8" height="1" fill="#e8b796"/>
<rect x="37" y="38" width="2" height="1" fill="#b86f50"/>
<rect x="39" y="38" width="3" height="1" fill="#c28569"/>
<rect x="42" y="38" width="2" height="1" fill="#181425"/>
<rect x="44" y="38" width="1" height="1" fill="#262b44"/>
<rect x="45" y="38" width="2" height="1" fill="#181425"/>
<rect x="14" y="39" width="7" height="1" fill="#181425"/>
<rect x="21" y="39" width="2" height="1" fill="#262b44"/>
<rect x="23" y="39" width="1" height="1" fill="#181425"/>
<rect x="24" y="39" width="2" height="1" fill="#262b44"/>
<rect x="26" y="39" width="4" height="1" fill="#181425"/>
<rect x="30" y="39" width="1" height="1" fill="#c28569"/>
<rect x="31" y="39" width="9" height="1" fill="#e8b796"/>
<rect x="40" y="39" width="1" height="1" fill="#c28569"/>
<rect x="41" y="39" width="1" height="1" fill="#733e39"/>
<rect x="42" y="39" width="2" height="1" fill="#181425"/>
<rect x="44" y="39" width="1" height="1" fill="#262b44"/>
<rect x="45" y="39" width="2" height="1" fill="#181425"/>
<rect x="15" y="40" width="7" height="1" fill="#181425"/>
<rect x="22" y="40" width="1" height="1" fill="#262b44"/>
<rect x="23" y="40" width="2" height="1" fill="#181425"/>
<rect x="25" y="40" width="2" height="1" fill="#262b44"/>
<rect x="27" y="40" width="1" height="1" fill="#181425"/>
<rect x="28" y="40" width="2" height="1" fill="#733e39"/>
<rect x="30" y="40" width="1" height="1" fill="#181425"/>
<rect x="31" y="40" width="1" height="1" fill="#733e39"/>
<rect x="32" y="40" width="1" height="1" fill="#b86f50"/>
<rect x="33" y="40" width="7" height="1" fill="#e8b796"/>
<rect x="40" y="40" width="1" height="1" fill="#733e39"/>
<rect x="41" y="40" width="2" height="1" fill="#181425"/>
<rect x="43" y="40" width="1" height="1" fill="#262b44"/>
<rect x="44" y="40" width="2" height="1" fill="#181425"/>
<rect x="16" y="41" width="7" height="1" fill="#181425"/>
<rect x="23" y="41" width="1" height="1" fill="#262b44"/>
<rect x="24" y="41" width="2" height="1" fill="#181425"/>
<rect x="26" y="41" width="1" height="1" fill="#262b44"/>
<rect x="27" y="41" width="1" height="1" fill="#181425"/>
<rect x="28" y="41" width="1" height="1" fill="#c28569"/>
<rect x="29" y="41" width="3" height="1" fill="#733e39"/>
<rect x="32" y="41" width="2" height="1" fill="#181425"/>
<rect x="34" y="41" width="1" height="1" fill="#c28569"/>
<rect x="35" y="41" width="5" height="1" fill="#e8b796"/>
<rect x="40" y="41" width="5" height="1" fill="#181425"/>
<rect x="18" y="42" width="6" height="1" fill="#181425"/>
<rect x="24" y="42" width="1" height="1" fill="#262b44"/>
<rect x="25" y="42" width="2" height="1" fill="#181425"/>
<rect x="27" y="42" width="1" height="1" fill="#262b44"/>
<rect x="28" y="42" width="1" height="1" fill="#181425"/>
<rect x="29" y="42" width="1" height="1" fill="#b86f50"/>
<rect x="30" y="42" width="5" height="1" fill="#733e39"/>
<rect x="35" y="42" width="9" height="1" fill="#181425"/>
<rect x="19" y="43" width="1" height="1" fill="#181425"/>
<rect x="20" y="43" width="2" height="1" fill="#f6757a"/>
<rect x="22" y="43" width="7" height="1" fill="#181425"/>
<rect x="29" y="43" width="3" height="1" fill="#c28569"/>
<rect x="32" y="43" width="4" height="1" fill="#733e39"/>
<rect x="36" y="43" width="6" height="1" fill="#181425"/>
<rect x="18" y="44" width="1" height="1" fill="#181425"/>
<rect x="19" y="44" width="6" height="1" fill="#f6757a"/>
<rect x="25" y="44" width="2" height="1" fill="#181425"/>
<rect x="27" y="44" width="1" height="1" fill="#c28569"/>
<rect x="28" y="44" width="1" height="1" fill="#b86f50"/>
<rect x="29" y="44" width="5" height="1" fill="#c28569"/>
<rect x="34" y="44" width="1" height="1" fill="#733e39"/>
<rect x="35" y="44" width="1" height="1" fill="#181425"/>
<rect x="36" y="44" width="1" height="1" fill="#f6757a"/>
<rect x="37" y="44" width="3" height="1" fill="#181425"/>
<rect x="17" y="45" width="2" height="1" fill="#181425"/>
<rect x="19" y="45" width="1" height="1" fill="#b55088"/>
<rect x="20" y="45" width="6" height="1" fill="#f6757a"/>
<rect x="26" y="45" width="2" height="1" fill="#181425"/>
<rect x="28" y="45" width="1" height="1" fill="#733e39"/>
<rect x="29" y="45" width="6" height="1" fill="#c28569"/>
<rect x="35" y="45" width="2" height="1" fill="#181425"/>
<rect x="37" y="45" width="2" height="1" fill="#f6757a"/>
<rect x="39" y="45" width="1" height="1" fill="#181425"/>
<rect x="16" y="46" width="1" height="1" fill="#181425"/>
<rect x="17" y="46" width="3" height="1" fill="#f6757a"/>
<rect x="20" y="46" width="2" height="1" fill="#b55088"/>
<rect x="22" y="46" width="7" height="1" fill="#f6757a"/>
<rect x="29" y="46" width="1" height="1" fill="#733e39"/>
<rect x="30" y="46" width="5" height="1" fill="#c28569"/>
<rect x="35" y="46" width="2" height="1" fill="#181425"/>
<rect x="37" y="46" width="3" height="1" fill="#f6757a"/>
<rect x="40" y="46" width="1" height="1" fill="#181425"/>
<rect x="15" y="47" width="1" height="1" fill="#181425"/>
<rect x="16" y="47" width="6" height="1" fill="#f6757a"/>
<rect x="22" y="47" width="2" height="1" fill="#b55088"/>
<rect x="24" y="47" width="6" height="1" fill="#f6757a"/>
<rect x="30" y="47" width="6" height="1" fill="#181425"/>
<rect x="36" y="47" width="3" height="1" fill="#f6757a"/>
<rect x="39" y="47" width="1" height="1" fill="#a22633"/>
<rect x="40" y="47" width="1" height="1" fill="#181425"/>
<rect x="14" y="48" width="4" height="1" fill="#181425"/>
<rect x="18" y="48" width="6" height="1" fill="#f6757a"/>
<rect x="24" y="48" width="1" height="1" fill="#b55088"/>
<rect x="25" y="48" width="14" height="1" fill="#f6757a"/>
<rect x="39" y="48" width="1" height="1" fill="#b55088"/>
<rect x="40" y="48" width="1" height="1" fill="#f6757a"/>
<rect x="41" y="48" width="3" height="1" fill="#181425"/>
<rect x="60" y="48" width="1" height="1" fill="#181425"/>
<rect x="12" y="49" width="2" height="1" fill="#181425"/>
<rect x="14" y="49" width="1" height="1" fill="#3e2731"/>
<rect x="15" y="49" width="4" height="1" fill="#68386c"/>
<rect x="19" y="49" width="7" height="1" fill="#f6757a"/>
<rect x="26" y="49" width="1" height="1" fill="#b55088"/>
<rect x="27" y="49" width="11" height="1" fill="#f6757a"/>
<rect x="38" y="49" width="1" height="1" fill="#b55088"/>
<rect x="39" y="49" width="2" height="1" fill="#f6757a"/>
<rect x="41" y="49" width="1" height="1" fill="#181425"/>
<rect x="42" y="49" width="2" height="1" fill="#68386c"/>
<rect x="44" y="49" width="3" height="1" fill="#181425"/>
<rect x="59" y="49" width="1" height="1" fill="#181425"/>
<rect x="60" y="49" width="1" height="1" fill="#c28569"/>
<rect x="61" y="49" width="1" height="1" fill="#181425"/>
<rect x="10" y="50" width="3" height="1" fill="#181425"/>
<rect x="13" y="50" width="7" height="1" fill="#68386c"/>
<rect x="20" y="50" width="2" height="1" fill="#181425"/>
<rect x="22" y="50" width="5" height="1" fill="#f6757a"/>
<rect x="27" y="50" width="1" height="1" fill="#b55088"/>
<rect x="28" y="50" width="13" height="1" fill="#f6757a"/>
<rect x="41" y="50" width="1" height="1" fill="#68386c"/>
<rect x="42" y="50" width="3" height="1" fill="#b55088"/>
<rect x="45" y="50" width="1" height="1" fill="#68386c"/>
<rect x="46" y="50" width="3" height="1" fill="#181425"/>
<rect x="58" y="50" width="1" height="1" fill="#181425"/>
<rect x="59" y="50" width="1" height="1" fill="#c28569"/>
<rect x="60" y="50" width="1" height="1" fill="#b86f50"/>
<rect x="61" y="50" width="1" height="1" fill="#181425"/>
<rect x="8" y="51" width="2" height="1" fill="#181425"/>
<rect x="10" y="51" width="5" height="1" fill="#68386c"/>
<rect x="15" y="51" width="4" height="1" fill="#b55088"/>
<rect x="19" y="51" width="3" height="1" fill="#68386c"/>
<rect x="22" y="51" width="1" height="1" fill="#181425"/>
<rect x="23" y="51" width="17" height="1" fill="#f6757a"/>
<rect x="40" y="51" width="1" height="1" fill="#181425"/>
<rect x="41" y="51" width="1" height="1" fill="#68386c"/>
<rect x="42" y="51" width="6" height="1" fill="#b55088"/>
<rect x="48" y="51" width="1" height="1" fill="#68386c"/>
<rect x="49" y="51" width="1" height="1" fill="#181425"/>
<rect x="57" y="51" width="1" height="1" fill="#181425"/>
<rect x="58" y="51" width="2" height="1" fill="#c28569"/>
<rect x="60" y="51" width="1" height="1" fill="#733e39"/>
<rect x="61" y="51" width="1" height="1" fill="#181425"/>
<rect x="7" y="52" width="2" height="1" fill="#181425"/>
<rect x="9" y="52" width="5" height="1" fill="#68386c"/>
<rect x="14" y="52" width="7" height="1" fill="#b55088"/>
<rect x="21" y="52" width="1" height="1" fill="#68386c"/>
<rect x="22" y="52" width="1" height="1" fill="#181425"/>
<rect x="23" y="52" width="1" height="1" fill="#f6757a"/>
<rect x="24" y="52" width="1" height="1" fill="#181425"/>
<rect x="25" y="52" width="14" height="1" fill="#f6757a"/>
<rect x="39" y="52" width="1" height="1" fill="#181425"/>
<rect x="40" y="52" width="1" height="1" fill="#68386c"/>
<rect x="41" y="52" width="9" height="1" fill="#b55088"/>
<rect x="50" y="52" width="1" height="1" fill="#181425"/>
<rect x="57" y="52" width="1" height="1" fill="#181425"/>
<rect x="58" y="52" width="2" height="1" fill="#733e39"/>
<rect x="60" y="52" width="1" height="1" fill="#181425"/>
<rect x="6" y="53" width="2" height="1" fill="#181425"/>
<rect x="8" y="53" width="4" height="1" fill="#68386c"/>
<rect x="12" y="53" width="1" height="1" fill="#b55088"/>
<rect x="13" y="53" width="2" height="1" fill="#0099db"/>
<rect x="15" y="53" width="6" height="1" fill="#b55088"/>
<rect x="21" y="53" width="2" height="1" fill="#68386c"/>
<rect x="23" y="53" width="1" height="1" fill="#181425"/>
<rect x="24" y="53" width="15" height="1" fill="#f6757a"/>
<rect x="39" y="53" width="1" height="1" fill="#181425"/>
<rect x="40" y="53" width="10" height="1" fill="#b55088"/>
<rect x="50" y="53" width="11" height="1" fill="#181425"/>
<rect x="6" y="54" width="1" height="1" fill="#181425"/>
<rect x="7" y="54" width="4" height="1" fill="#68386c"/>
<rect x="11" y="54" width="1" height="1" fill="#b55088"/>
<rect x="12" y="54" width="1" height="1" fill="#68386c"/>
<rect x="13" y="54" width="9" height="1" fill="#b55088"/>
<rect x="22" y="54" width="1" height="1" fill="#68386c"/>
<rect x="23" y="54" width="1" height="1" fill="#181425"/>
<rect x="24" y="54" width="4" height="1" fill="#f6757a"/>
<rect x="28" y="54" width="1" height="1" fill="#181425"/>
<rect x="29" y="54" width="8" height="1" fill="#f6757a"/>
<rect x="37" y="54" width="1" height="1" fill="#181425"/>
<rect x="38" y="54" width="1" height="1" fill="#68386c"/>
<rect x="39" y="54" width="7" height="1" fill="#b55088"/>
<rect x="46" y="54" width="4" height="1" fill="#181425"/>
<rect x="50" y="54" width="6" height="1" fill="#e4a672"/>
<rect x="56" y="54" width="5" height="1" fill="#181425"/>
<rect x="5" y="55" width="1" height="1" fill="#181425"/>
<rect x="6" y="55" width="4" height="1" fill="#68386c"/>
<rect x="10" y="55" width="10" height="1" fill="#b55088"/>
<rect x="20" y="55" width="1" height="1" fill="#feae34"/>
<rect x="21" y="55" width="1" height="1" fill="#b55088"/>
<rect x="22" y="55" width="2" height="1" fill="#68386c"/>
<rect x="24" y="55" width="6" height="1" fill="#f6757a"/>
<rect x="30" y="55" width="6" height="1" fill="#181425"/>
<rect x="36" y="55" width="2" height="1" fill="#68386c"/>
<rect x="38" y="55" width="7" height="1" fill="#b55088"/>
<rect x="45" y="55" width="2" height="1" fill="#181425"/>
<rect x="47" y="55" width="9" height="1" fill="#e4a672"/>
<rect x="56" y="55" width="1" height="1" fill="#181425"/>
<rect x="57" y="55" width="1" height="1" fill="#c0cbdc"/>
<rect x="58" y="55" width="1" height="1" fill="#181425"/>
<rect x="59" y="55" width="1" height="1" fill="#e4a672"/>
<rect x="60" y="55" width="1" height="1" fill="#b86f50"/>
<rect x="61" y="55" width="1" height="1" fill="#181425"/>
<rect x="5" y="56" width="1" height="1" fill="#181425"/>
<rect x="6" y="56" width="4" height="1" fill="#68386c"/>
<rect x="10" y="56" width="4" height="1" fill="#b55088"/>
<rect x="14" y="56" width="1" height="1" fill="#68386c"/>
<rect x="15" y="56" width="5" height="1" fill="#b55088"/>
<rect x="20" y="56" width="1" height="1" fill="#feae34"/>
<rect x="21" y="56" width="1" height="1" fill="#b55088"/>
<rect x="22" y="56" width="2" height="1" fill="#68386c"/>
<rect x="24" y="56" width="1" height="1" fill="#181425"/>
<rect x="25" y="56" width="5" height="1" fill="#f6757a"/>
<rect x="30" y="56" width="1" height="1" fill="#181425"/>
<rect x="31" y="56" width="6" height="1" fill="#68386c"/>
<rect x="37" y="56" width="6" height="1" fill="#b55088"/>
<rect x="43" y="56" width="2" height="1" fill="#181425"/>
<rect x="45" y="56" width="4" height="1" fill="#e4a672"/>
<rect x="49" y="56" width="4" height="1" fill="#ffffff"/>
<rect x="53" y="56" width="2" height="1" fill="#e4a672"/>
<rect x="55" y="56" width="1" height="1" fill="#181425"/>
<rect x="56" y="56" width="1" height="1" fill="#c0cbdc"/>
<rect x="57" y="56" width="1" height="1" fill="#181425"/>
<rect x="58" y="56" width="1" height="1" fill="#e43b44"/>
<rect x="59" y="56" width="3" height="1" fill="#e4a672"/>
<rect x="62" y="56" width="1" height="1" fill="#181425"/>
<rect x="5" y="57" width="1" height="1" fill="#181425"/>
<rect x="6" y="57" width="3" height="1" fill="#68386c"/>
<rect x="9" y="57" width="5" height="1" fill="#b55088"/>
<rect x="14" y="57" width="1" height="1" fill="#68386c"/>
<rect x="15" y="57" width="8" height="1" fill="#b55088"/>
<rect x="23" y="57" width="1" height="1" fill="#68386c"/>
<rect x="24" y="57" width="1" height="1" fill="#181425"/>
<rect x="25" y="57" width="6" height="1" fill="#f6757a"/>
<rect x="31" y="57" width="10" height="1" fill="#b55088"/>
<rect x="41" y="57" width="2" height="1" fill="#181425"/>
<rect x="43" y="57" width="6" height="1" fill="#e4a672"/>
<rect x="49" y="57" width="4" height="1" fill="#ffffff"/>
<rect x="53" y="57" width="2" height="1" fill="#e4a672"/>
<rect x="55" y="57" width="1" height="1" fill="#181425"/>
<rect x="56" y="57" width="1" height="1" fill="#8b9bb4"/>
<rect x="57" y="57" width="1" height="1" fill="#181425"/>
<rect x="58" y="57" width="2" height="1" fill="#e43b44"/>
<rect x="60" y="57" width="3" height="1" fill="#e4a672"/>
<rect x="63" y="57" width="1" height="1" fill="#181425"/>
<rect x="4" y="58" width="1" height="1" fill="#181425"/>
<rect x="5" y="58" width="4" height="1" fill="#68386c"/>
<rect x="9" y="58" width="6" height="1" fill="#b55088"/>
<rect x="15" y="58" width="1" height="1" fill="#68386c"/>
<rect x="16" y="58" width="1" height="1" fill="#b55088"/>
<rect x="17" y="58" width="1" height="1" fill="#68386c"/>
<rect x="18" y="58" width="5" height="1" fill="#b55088"/>
<rect x="23" y="58" width="1" height="1" fill="#68386c"/>
<rect x="24" y="58" width="1" height="1" fill="#181425"/>
<rect x="25" y="58" width="6" height="1" fill="#f6757a"/>
<rect x="31" y="58" width="1" height="1" fill="#181425"/>
<rect x="32" y="58" width="8" height="1" fill="#b55088"/>
<rect x="40" y="58" width="2" height="1" fill="#181425"/>
<rect x="42" y="58" width="2" height="1" fill="#e4a672"/>
<rect x="44" y="58" width="3" height="1" fill="#e43b44"/>
<rect x="47" y="58" width="2" height="1" fill="#e4a672"/>
<rect x="49" y="58" width="3" height="1" fill="#ffffff"/>
<rect x="52" y="58" width="2" height="1" fill="#e4a672"/>
<rect x="54" y="58" width="1" height="1" fill="#181425"/>
<rect x="55" y="58" width="1" height="1" fill="#b86f50"/>
<rect x="56" y="58" width="1" height="1" fill="#181425"/>
<rect x="57" y="58" width="2" height="1" fill="#e43b44"/>
<rect x="59" y="58" width="1" height="1" fill="#feae34"/>
<rect x="60" y="58" width="3" height="1" fill="#e4a672"/>
<rect x="63" y="58" width="1" height="1" fill="#181425"/>
<rect x="4" y="59" width="1" height="1" fill="#181425"/>
<rect x="5" y="59" width="3" height="1" fill="#68386c"/>
<rect x="8" y="59" width="7" height="1" fill="#b55088"/>
<rect x="15" y="59" width="1" height="1" fill="#68386c"/>
<rect x="16" y="59" width="1" height="1" fill="#b55088"/>
<rect x="17" y="59" width="1" height="1" fill="#68386c"/>
<rect x="18" y="59" width="5" height="1" fill="#b55088"/>
<rect x="23" y="59" width="1" height="1" fill="#68386c"/>
<rect x="24" y="59" width="1" height="1" fill="#181425"/>
<rect x="25" y="59" width="6" height="1" fill="#f6757a"/>
<rect x="31" y="59" width="1" height="1" fill="#181425"/>
<rect x="32" y="59" width="7" height="1" fill="#b55088"/>
<rect x="39" y="59" width="2" height="1" fill="#181425"/>
<rect x="41" y="59" width="3" height="1" fill="#e4a672"/>
<rect x="44" y="59" width="3" height="1" fill="#e43b44"/>
<rect x="47" y="59" width="6" height="1" fill="#e4a672"/>
<rect x="53" y="59" width="1" height="1" fill="#181425"/>
<rect x="54" y="59" width="1" height="1" fill="#c28569"/>
<rect x="55" y="59" width="1" height="1" fill="#733e39"/>
<rect x="56" y="59" width="1" height="1" fill="#181425"/>
<rect x="57" y="59" width="1" height="1" fill="#e43b44"/>
<rect x="58" y="59" width="6" height="1" fill="#e4a672"/>
<rect x="4" y="60" width="1" height="1" fill="#181425"/>
<rect x="5" y="60" width="3" height="1" fill="#68386c"/>
<rect x="8" y="60" width="7" height="1" fill="#b55088"/>
<rect x="15" y="60" width="4" height="1" fill="#68386c"/>
<rect x="19" y="60" width="4" height="1" fill="#b55088"/>
<rect x="23" y="60" width="1" height="1" fill="#68386c"/>
<rect x="24" y="60" width="1" height="1" fill="#181425"/>
<rect x="25" y="60" width="7" height="1" fill="#f6757a"/>
<rect x="32" y="60" width="1" height="1" fill="#181425"/>
<rect x="33" y="60" width="5" height="1" fill="#b55088"/>
<rect x="38" y="60" width="2" height="1" fill="#181425"/>
<rect x="40" y="60" width="4" height="1" fill="#e4a672"/>
<rect x="44" y="60" width="3" height="1" fill="#e43b44"/>
<rect x="47" y="60" width="4" height="1" fill="#e4a672"/>
<rect x="51" y="60" width="2" height="1" fill="#b86f50"/>
<rect x="53" y="60" width="1" height="1" fill="#181425"/>
<rect x="54" y="60" width="1" height="1" fill="#b86f50"/>
<rect x="55" y="60" width="1" height="1" fill="#181425"/>
<rect x="56" y="60" width="1" height="1" fill="#b86f50"/>
<rect x="57" y="60" width="3" height="1" fill="#e4a672"/>
<rect x="60" y="60" width="2" height="1" fill="#63c74d"/>
<rect x="62" y="60" width="2" height="1" fill="#e4a672"/>
<rect x="3" y="61" width="2" height="1" fill="#181425"/>
<rect x="5" y="61" width="3" height="1" fill="#68386c"/>
<rect x="8" y="61" width="4" height="1" fill="#b55088"/>
<rect x="12" y="61" width="1" height="1" fill="#0099db"/>
<rect x="13" y="61" width="3" height="1" fill="#b55088"/>
<rect x="16" y="61" width="3" height="1" fill="#68386c"/>
<rect x="19" y="61" width="4" height="1" fill="#b55088"/>
<rect x="23" y="61" width="2" height="1" fill="#68386c"/>
<rect x="25" y="61" width="7" height="1" fill="#f6757a"/>
<rect x="32" y="61" width="1" height="1" fill="#181425"/>
<rect x="33" y="61" width="4" height="1" fill="#b55088"/>
<rect x="37" y="61" width="1" height="1" fill="#68386c"/>
<rect x="38" y="61" width="1" height="1" fill="#181425"/>
<rect x="39" y="61" width="2" height="1" fill="#e4a672"/>
<rect x="41" y="61" width="2" height="1" fill="#ead4aa"/>
<rect x="43" y="61" width="6" height="1" fill="#e4a672"/>
<rect x="49" y="61" width="1" height="1" fill="#b86f50"/>
<rect x="50" y="61" width="2" height="1" fill="#e4a672"/>
<rect x="52" y="61" width="1" height="1" fill="#181425"/>
<rect x="53" y="61" width="1" height="1" fill="#c28569"/>
<rect x="54" y="61" width="1" height="1" fill="#181425"/>
<rect x="55" y="61" width="1" height="1" fill="#b86f50"/>
<rect x="56" y="61" width="3" height="1" fill="#e4a672"/>
<rect x="59" y="61" width="4" height="1" fill="#63c74d"/>
<rect x="63" y="61" width="1" height="1" fill="#e4a672"/>
<rect x="3" y="62" width="1" height="1" fill="#181425"/>
<rect x="4" y="62" width="3" height="1" fill="#68386c"/>
<rect x="7" y="62" width="5" height="1" fill="#b55088"/>
<rect x="12" y="62" width="1" height="1" fill="#0099db"/>
<rect x="13" y="62" width="3" height="1" fill="#b55088"/>
<rect x="16" y="62" width="3" height="1" fill="#68386c"/>
<rect x="19" y="62" width="5" height="1" fill="#b55088"/>
<rect x="24" y="62" width="1" height="1" fill="#68386c"/>
<rect x="25" y="62" width="7" height="1" fill="#f6757a"/>
<rect x="32" y="62" width="1" height="1" fill="#181425"/>
<rect x="33" y="62" width="3" height="1" fill="#b55088"/>
<rect x="36" y="62" width="1" height="1" fill="#68386c"/>
<rect x="37" y="62" width="1" height="1" fill="#181425"/>
<rect x="38" y="62" width="2" height="1" fill="#e4a672"/>
<rect x="40" y="62" width="4" height="1" fill="#ead4aa"/>
<rect x="44" y="62" width="4" height="1" fill="#e4a672"/>
<rect x="48" y="62" width="1" height="1" fill="#b86f50"/>
<rect x="49" y="62" width="3" height="1" fill="#e4a672"/>
<rect x="52" y="62" width="1" height="1" fill="#b86f50"/>
<rect x="53" y="62" width="1" height="1" fill="#c28569"/>
<rect x="54" y="62" width="1" height="1" fill="#181425"/>
<rect x="55" y="62" width="1" height="1" fill="#b86f50"/>
<rect x="56" y="62" width="2" height="1" fill="#e4a672"/>
<rect x="58" y="62" width="1" height="1" fill="#b86f50"/>
<rect x="59" y="62" width="3" height="1" fill="#63c74d"/>
<rect x="62" y="62" width="2" height="1" fill="#e4a672"/>
<rect x="3" y="63" width="1" height="1" fill="#181425"/>
<rect x="4" y="63" width="3" height="1" fill="#68386c"/>
<rect x="7" y="63" width="9" height="1" fill="#b55088"/>
<rect x="16" y="63" width="3" height="1" fill="#68386c"/>
<rect x="19" y="63" width="5" height="1" fill="#b55088"/>
<rect x="24" y="63" width="1" height="1" fill="#68386c"/>
<rect x="25" y="63" width="7" height="1" fill="#f6757a"/>
<rect x="32" y="63" width="1" height="1" fill="#181425"/>
<rect x="33" y="63" width="3" height="1" fill="#b55088"/>
<rect x="36" y="63" width="1" height="1" fill="#68386c"/>
<rect x="37" y="63" width="1" height="1" fill="#b86f50"/>
<rect x="38" y="63" width="2" height="1" fill="#e4a672"/>
<rect x="40" y="63" width="3" height="1" fill="#ead4aa"/>
<rect x="43" y="63" width="8" height="1" fill="#e4a672"/>
<rect x="51" y="63" width="1" height="1" fill="#181425"/>
<rect x="52" y="63" width="1" height="1" fill="#c28569"/>
<rect x="53" y="63" width="2" height="1" fill="#181425"/>
<rect x="55" y="63" width="2" height="1" fill="#e4a672"/>
<rect x="57" y="63" width="1" height="1" fill="#b86f50"/>
<rect x="58" y="63" width="6" height="1" fill="#e4a672"/>
</svg>
